<svg width="1920" height="962" xmlns="http://www.w3.org/2000/svg"><g fill="none" fill-rule="evenodd"><ellipse fill="#E5E5E5" cx="1758.782" cy="865.475" rx="160.577" ry="15.647"/><path d="M1788.28 715.671c8.85 1.54 16.033 8.465 17.443 17.443.257 1.668.385 3.335.129 5.13-.898 10.39-24.24 21.932-37.836 25.139-13.595 3.078-25.395 3.976-26.806 1.41-1.539-2.565 5.259-15.39 11.8-21.675 6.541-6.284 26.677-26.164 27.447-27.703.385-.77 3.848-.385 7.824.256z" fill="#848A96"/><path d="M1770.838 623.583s2.18 39.375 2.95 52.585c.897 13.21-14.109 15.006-6.798 19.239 7.31 4.232 7.31 6.797 6.413 11.158-.898 4.233-5.13 8.08-1.668 11.158 3.463 2.95 18.854 2.95 26.55 4.746 7.695 1.796 9.362 4.232 9.875 1.667.513-2.565-.384-2.18-.897-8.08-.385-6.028.897-15.39 2.18-17.956 1.282-2.565 6.413-68.874 6.413-68.874l-45.018-5.643z" fill="#9B9B9B"/><path fill="#3A4151" d="M1759.295 629.868h11.543V840.85h-11.543z"/><path d="M1832.914 861.884c-36.553-36.553-95.808-36.553-132.36 0l-3.336 3.334 6.798 1.411a279.027 279.027 0 0 0 126.46-4.104l2.438-.641z" fill="#3A4151"/><g fill="#ED3868"><path d="M330.26 688.866h59.896c1.026 0 1.796-.513 1.796-1.283 0-.77-.77-1.282-1.796-1.282h-59.895c-1.027 0-1.796.513-1.796 1.282 0 .77.77 1.283 1.796 1.283zM2.565 688.866h277.932c1.026 0 1.796-.513 1.796-1.283 0-.77-.77-1.282-1.796-1.282H2.565c-1.026 0-1.795.513-1.795 1.282 0 .77.77 1.283 1.795 1.283z"/></g><path d="M1796.874 768.128h-63.744c-1.026 0-1.924-.898-1.924-1.924 0-1.026.898-1.923 1.924-1.923h63.744c1.026 0 1.924.897 1.924 1.923s-.77 1.924-1.924 1.924z" fill="#3A4151"/><path fill="#777" d="M1669.25 749.651H916.513V93.748h752.737z"/><path fill="#565656" d="M1246.645 749.651H916.513V93.748h330.132z"/><g stroke="#333"><path d="M1177.523 191.23s31.551-6.412 37.194 21.804c5.644 28.217-13.21 477.114-4.36 496.353 12.184 26.292 44.376 12.825 44.376 12.825"/><path d="M1177.01 286.525s55.663-52.329 48.481 172.12c-7.182 224.45-18.212 259.463 28.858 252.922"/><path d="M1178.036 378.87s31.808-1.026 40.4 22.06c8.594 23.086-37.194 301.403 36.041 301.146"/><path d="M1176.112 475.96s17.956-3.206 20.778 4.489c2.821 7.695-5.772 214.188 4.36 228.296 10.133 14.109 31.552 11.544 52.97 8.978"/><path d="M1176.112 571.511s16.417-5.13 12.185 48.737c-4.361 53.868-12.954 101.323 67.334 94.91"/></g><g opacity=".5"><path fill="#333" d="M1553.51 228.064h-226.245v-78.621h226.245z"/><path fill="#262626" d="M1358.064 228.064h-30.91v-78.621h30.91z"/><g fill="#525252"><path d="M1528.921 215.47v-53.61h4.618v53.61zM1515.147 215.547v-53.611h4.617v53.611zM1501.372 215.496v-53.611h4.617v53.61zM1487.597 215.445v-53.612h4.617v53.612zM1473.822 215.521v-53.61h4.617v53.61zM1460.047 215.47v-53.611h4.618v53.611zM1446.273 215.547v-53.611h4.617v53.611zM1432.498 215.496v-53.612h4.617v53.612zM1418.723 215.444v-53.611h4.617v53.611zM1404.948 215.521V161.91h4.617v53.611zM1391.173 215.47v-53.611h4.618v53.61zM1377.398 215.547v-53.611h4.617v53.611z"/></g><g transform="translate(1337.715 162.886)" fill="#525252"><circle cx="5.259" cy="5.643" r="4.874"/><circle cx="5.259" cy="25.78" r="4.874"/><circle cx="5.259" cy="45.916" r="4.874"/></g><path fill="#333" d="M1553.51 323.448h-226.245v-78.621h226.245z"/><path fill="#262626" d="M1358.064 323.448h-30.91v-78.621h30.91z"/><g fill="#525252"><path d="M1529.005 310.938v-53.611h4.617v53.61zM1515.23 311.015v-53.611h4.618v53.61zM1501.455 310.963v-53.61h4.618v53.61zM1487.68 310.912v-53.611h4.618v53.611zM1473.906 310.989v-53.611h4.617v53.61zM1460.131 310.938v-53.612h4.617v53.612zM1446.356 311.014v-53.61h4.617v53.61zM1432.581 310.963v-53.611h4.618v53.611zM1418.807 310.912V257.3h4.617v53.61zM1405.032 310.989v-53.612h4.617v53.612zM1391.257 310.937v-53.611h4.617v53.611zM1377.482 311.014v-53.611h4.617v53.611z"/></g><g transform="translate(1337.715 259.078)" fill="#525252"><circle cx="5.259" cy="5.002" r="4.874"/><circle cx="5.259" cy="25.01" r="4.874"/><circle cx="5.259" cy="45.146" r="4.874"/></g><g><path fill="#333" d="M1553.51 418.96h-226.245v-78.621h226.245z"/><path fill="#262626" d="M1358.064 418.96h-30.91v-78.621h30.91z"/><g fill="#525252"><path d="M1528.96 406.405v-53.611h4.618v53.611zM1515.186 406.482v-53.61h4.617v53.61zM1501.41 406.43v-53.61h4.618v53.61zM1487.636 406.38v-53.612h4.617v53.611zM1473.861 406.456v-53.61h4.617v53.61zM1460.086 406.405v-53.611h4.618v53.611zM1446.312 406.482v-53.611h4.617v53.611zM1432.537 406.43v-53.61h4.617v53.61zM1418.762 406.38v-53.612h4.617v53.611zM1404.987 406.456v-53.611h4.617v53.611zM1391.212 406.405v-53.611h4.618v53.61zM1377.437 406.482V352.87h4.618v53.61z"/></g><g transform="translate(1337.715 353.988)" fill="#525252"><circle cx="5.259" cy="5.515" r="4.874"/><circle cx="5.259" cy="25.651" r="4.874"/><circle cx="5.259" cy="45.788" r="4.874"/></g></g><g><path fill="#333" d="M1553.51 514.472h-226.245v-78.621h226.245z"/><path fill="#262626" d="M1358.064 514.472h-30.91v-78.621h30.91z"/><g fill="#525252"><path d="M1528.916 501.873v-53.611h4.617v53.61zM1515.14 501.95v-53.611h4.618v53.61zM1501.366 501.898v-53.61h4.617v53.61zM1487.591 501.847v-53.611h4.617v53.611zM1473.816 501.924v-53.611h4.618v53.61zM1460.042 501.873V448.26h4.617v53.612zM1446.267 501.95v-53.612h4.617v53.612zM1432.492 501.898v-53.611h4.617v53.611zM1418.717 501.847v-53.611h4.617v53.61zM1404.942 501.924v-53.612h4.618v53.612zM1391.168 501.872v-53.61h4.617v53.61zM1377.393 501.95v-53.612h4.617v53.611z"/></g><g transform="translate(1337.715 448.898)" fill="#525252"><circle cx="5.259" cy="6.028" r="4.874"/><circle cx="5.259" cy="26.164" r="4.874"/><circle cx="5.259" cy="46.301" r="4.874"/></g></g><g><path fill="#333" d="M1553.51 609.856h-226.245v-78.621h226.245z"/><path fill="#262626" d="M1358.064 609.856h-30.91v-78.621h30.91z"/><g fill="#525252"><path d="M1529 597.34v-53.61h4.616v53.61zM1515.224 597.417v-53.61h4.618v53.61zM1501.45 597.366v-53.611h4.617v53.611zM1487.675 597.314v-53.61h4.617v53.61zM1473.9 597.391v-53.61h4.617v53.61zM1460.125 597.34V543.73h4.617v53.611zM1446.35 597.417v-53.611h4.618v53.611zM1432.576 597.366v-53.612h4.617v53.612zM1418.8 597.314v-53.61h4.618v53.61zM1405.026 597.391V543.78h4.617v53.611zM1391.251 597.34v-53.611h4.617v53.61zM1377.477 597.416v-53.61h4.617v53.61z"/></g><g transform="translate(1337.715 545.09)" fill="#525252"><circle cx="5.259" cy="5.387" r="4.874"/><circle cx="5.259" cy="25.395" r="4.874"/><circle cx="5.259" cy="45.531" r="4.874"/></g></g></g><path fill="#565656" d="M1732.15 749.651h-101.707V93.748h101.707zM1620.778 93.755h9.619V749.66h-9.62z"/><g fill="#333"><path d="M1142.007 642.18H982.199v-2.437h159.808zM1142.007 649.392H982.199v-2.437h159.808zM1142.007 656.732H982.199v-2.437h159.808zM1142.007 663.943H982.199v-2.437h159.808zM1142.007 671.155H982.199v-2.437h159.808zM1142.007 678.495H982.199v-2.437h159.808zM1142.007 685.707H982.199v-2.437h159.808zM1142.007 693.047H982.199v-2.437h159.808zM1142.007 700.258H982.199v-2.437h159.808zM1142.007 707.47H982.199v-2.437h159.808zM1142.007 714.81H982.199v-2.437h159.808zM1142.007 722.022H982.199v-2.437h159.808z"/></g><g fill="#333"><path d="M1522.929 642.18H1363.12v-2.437h159.808zM1522.929 649.392H1363.12v-2.437h159.808zM1522.929 656.732H1363.12v-2.437h159.808zM1522.929 663.943H1363.12v-2.437h159.808zM1522.929 671.155H1363.12v-2.437h159.808zM1522.929 678.495H1363.12v-2.437h159.808zM1522.929 685.707H1363.12v-2.437h159.808zM1522.929 693.047H1363.12v-2.437h159.808zM1522.929 700.258H1363.12v-2.437h159.808zM1522.929 707.47H1363.12v-2.437h159.808zM1522.929 714.81H1363.12v-2.437h159.808zM1522.929 722.022H1363.12v-2.437h159.808z"/></g><g fill="#333"><path d="M1704.499 438.251h-48.866v-2.436h48.866zM1704.499 445.463h-48.866v-2.437h48.866zM1704.499 452.803h-48.866v-2.437h48.866zM1704.499 460.015h-48.866v-2.437h48.866zM1704.499 467.226h-48.866v-2.436h48.866zM1704.499 474.566h-48.866v-2.436h48.866zM1704.499 481.778h-48.866v-2.437h48.866zM1704.499 489.118h-48.866v-2.437h48.866zM1704.499 496.33h-48.866v-2.437h48.866zM1704.499 503.541h-48.866v-2.436h48.866zM1704.499 510.881h-48.866v-2.436h48.866zM1704.499 518.093h-48.866v-2.437h48.866z"/></g><g fill="#FFF"><g transform="translate(1662.204 218.036)"><circle cx="6.156" cy="133.259" r="5.643"/><circle cx="6.156" cy="101.451" r="5.643"/><circle cx="6.156" cy="69.772" r="5.643"/><circle cx="6.156" cy="37.964" r="5.643"/><circle cx="6.156" cy="6.156" r="5.643"/></g><g transform="translate(1687.856 218.036)"><circle cx="6.156" cy="133.259" r="5.643"/><circle cx="6.156" cy="101.451" r="5.643"/><circle cx="6.156" cy="69.772" r="5.643"/><circle cx="6.156" cy="37.964" r="5.643"/><circle cx="6.156" cy="6.156" r="5.643"/></g></g><g stroke="#565656"><path d="M1554.469 191.23s28.216-6.412 33.347 21.804c5.13 28.217-11.8 477.114-3.848 496.353 10.902 26.292 39.76 12.825 39.76 12.825"/><path d="M1556.008 350.91s47.84-116.714 41.427 107.735c-6.413 224.45-16.289 259.463 25.908 252.922"/><path d="M1554.854 378.87s28.473-1.026 36.168 22.06-33.347 301.403 32.32 301.146"/><path d="M1553.186 475.96s16.032-3.206 18.598 4.489c2.565 7.695-5.13 214.188 3.847 228.296 8.978 14.109 28.217 11.544 47.455 8.978"/><path d="M1553.186 571.511s14.75-5.13 10.902 48.737c-3.848 53.868-11.543 101.323 60.28 94.91"/></g><g opacity=".5"><path fill="#333" d="M1177.718 228.064H951.474v-78.621h226.244z"/><path fill="#262626" d="M982.272 228.064h-30.91v-78.621h30.91z"/><g fill="#525252"><path d="M1153.13 215.47v-53.61h4.617v53.61zM1139.355 215.547v-53.611h4.617v53.611zM1125.58 215.496v-53.611h4.617v53.61zM1111.805 215.445v-53.612h4.618v53.612zM1098.03 215.521v-53.61h4.618v53.61zM1084.256 215.47v-53.611h4.617v53.611zM1070.48 215.547v-53.611h4.618v53.611zM1056.706 215.496v-53.612h4.617v53.612zM1042.931 215.444v-53.611h4.618v53.611zM1029.157 215.521V161.91h4.617v53.611zM1015.382 215.47v-53.611h4.617v53.61zM1001.607 215.547v-53.611h4.617v53.61z"/></g><g transform="translate(961.924 162.886)" fill="#525252"><circle cx="5.259" cy="5.643" r="4.874"/><circle cx="5.259" cy="25.78" r="4.874"/><circle cx="5.259" cy="45.916" r="4.874"/></g><path fill="#333" d="M1177.718 323.448H951.474v-78.621h226.244z"/><path fill="#262626" d="M982.272 323.448h-30.91v-78.621h30.91z"/><g fill="#525252"><path d="M1153.213 310.938v-53.611h4.618v53.61zM1139.439 311.015v-53.611h4.617v53.61zM1125.664 310.963v-53.61h4.617v53.61zM1111.889 310.912v-53.611h4.617v53.611zM1098.114 310.989v-53.611h4.617v53.61zM1084.34 310.938v-53.612h4.617v53.612zM1070.565 311.014v-53.61h4.617v53.61zM1056.79 310.963v-53.611h4.617v53.611zM1043.015 310.912V257.3h4.617v53.61zM1029.24 310.989v-53.612h4.617v53.612zM1015.465 310.937v-53.611h4.618v53.611zM1001.69 311.014v-53.611h4.618v53.611z"/></g><g transform="translate(961.924 259.078)" fill="#525252"><circle cx="5.259" cy="5.002" r="4.874"/><circle cx="5.259" cy="25.01" r="4.874"/><circle cx="5.259" cy="45.146" r="4.874"/></g><g><path fill="#333" d="M1177.718 418.96H951.474v-78.621h226.244z"/><path fill="#262626" d="M982.272 418.96h-30.91v-78.621h30.91z"/><g fill="#525252"><path d="M1153.169 406.405v-53.611h4.617v53.611zM1139.394 406.482v-53.61h4.617v53.61zM1125.62 406.43v-53.61h4.616v53.61zM1111.844 406.38v-53.612h4.618v53.611zM1098.07 406.456v-53.61h4.617v53.61zM1084.295 406.405v-53.611h4.617v53.611zM1070.52 406.482v-53.611h4.617v53.611zM1056.745 406.43v-53.61h4.617v53.61zM1042.97 406.38v-53.612h4.618v53.611zM1029.196 406.456v-53.611h4.617v53.611zM1015.42 406.405v-53.611h4.618v53.61zM1001.646 406.482V352.87h4.617v53.61z"/></g><g transform="translate(961.924 353.988)" fill="#525252"><circle cx="5.259" cy="5.515" r="4.874"/><circle cx="5.259" cy="25.651" r="4.874"/><circle cx="5.259" cy="45.788" r="4.874"/></g></g><g><path fill="#333" d="M1177.718 514.472H951.474v-78.621h226.244z"/><path fill="#262626" d="M982.272 514.472h-30.91v-78.621h30.91z"/><g fill="#525252"><path d="M1153.124 501.873v-53.611h4.617v53.61zM1139.35 501.95v-53.611h4.617v53.61zM1125.574 501.898v-53.61h4.618v53.61zM1111.8 501.847v-53.611h4.617v53.611zM1098.025 501.924v-53.611h4.617v53.61zM1084.25 501.873V448.26h4.617v53.612zM1070.475 501.95v-53.612h4.618v53.612zM1056.7 501.898v-53.611h4.618v53.611zM1042.926 501.847v-53.611h4.617v53.61zM1029.15 501.924v-53.612h4.618v53.612zM1015.376 501.872v-53.61h4.617v53.61zM1001.601 501.95v-53.612h4.618v53.611z"/></g><g transform="translate(961.924 448.898)" fill="#525252"><circle cx="5.259" cy="6.028" r="4.874"/><circle cx="5.259" cy="26.164" r="4.874"/><circle cx="5.259" cy="46.301" r="4.874"/></g></g><g><path fill="#333" d="M1177.718 609.856H951.474v-78.621h226.244z"/><path fill="#262626" d="M982.272 609.856h-30.91v-78.621h30.91z"/><g fill="#525252"><path d="M1153.208 597.34v-53.61h4.617v53.61zM1139.433 597.417v-53.61h4.617v53.61zM1125.658 597.366v-53.611h4.617v53.61zM1111.883 597.315v-53.612h4.618v53.612zM1098.109 597.391v-53.61h4.617v53.61zM1084.334 597.34V543.73h4.617v53.611zM1070.559 597.417v-53.611h4.617v53.611zM1056.784 597.366v-53.612h4.617v53.612zM1043.01 597.314v-53.61h4.617v53.61zM1029.235 597.391V543.78h4.617v53.611zM1015.46 597.34v-53.611h4.617v53.61zM1001.685 597.417v-53.611h4.617v53.61z"/></g><g transform="translate(961.924 545.09)" fill="#525252"><circle cx="5.259" cy="5.387" r="4.874"/><circle cx="5.259" cy="25.395" r="4.874"/><circle cx="5.259" cy="45.531" r="4.874"/></g></g></g><ellipse fill="#E5E5E5" cx="387.719" cy="838.413" rx="241.122" ry="20.136"/><ellipse fill="#E5E5E5" cx="463.391" cy="935.375" rx="160.577" ry="26.549"/><ellipse fill="#E5E5E5" cx="511.23" cy="896.257" rx="94.653" ry="23.343"/><path d="M453.515 842.645s-4.745 9.62-6.541 17.956c-1.796 8.337-.385 15.776 8.721 22.317 9.235 6.54 30.14 2.565 40.658 7.823 10.517 5.259 41.94 3.463 51.046 3.976 9.234.385 14.878-4.745 13.98-13.595-.898-8.85-36.682-26.164-46.3-29.242-9.62-3.078-24.498-10.902-24.498-10.902l-37.066 1.667z" fill="#473B5B"/><path d="M480.449 843.03s-3.207 17.956 13.467 23.728c16.673 5.771 36.553 20.52 56.433 18.597 4.617-.385 8.208-.77 11.03-.898.128-1.026.128-2.18 0-3.335-.898-8.721-36.682-26.164-46.3-29.242-9.62-3.078-24.498-10.902-24.498-10.902l-37.066 1.796s-.513 1.154-1.283 2.821l28.217-2.565z"/><path d="M493.916 866.758c-16.674-5.772-13.467-23.728-13.467-23.728l-28.217 2.437c-1.539 3.463-4.104 9.49-5.258 15.006-1.796 8.337-.385 15.775 8.721 22.317 9.235 6.54 30.14 2.565 40.658 7.823 10.517 5.259 41.94 3.463 51.046 3.976 7.952.385 13.21-3.463 13.98-10.132-2.822.128-6.413.385-11.03.898-19.88 1.924-39.76-12.826-56.433-18.597z" fill="#000" opacity=".1"/><path d="M390.541 853.804c11.671-.77 21.932 7.438 24.112 18.982.385 2.308 5.515 13.338 7.31 15.39 8.722 9.876 12.827 19.752 7.568 37.323-3.078 10.26-8.85 16.545-12.954 19.88-3.206 2.693-7.439 3.72-11.543 2.95-6.028-1.026-15.519-4.746-24.369-15.904-14.62-18.597-8.08-51.046-8.208-55.279-.128-6.669 4.617-22.188 4.617-22.188s5.9-.641 13.467-1.154z" fill="#473B5B"/><path d="M421.964 888.176c-1.796-2.052-6.926-13.082-7.31-15.39-2.181-11.544-12.442-19.752-24.113-18.982-7.567.513-13.467 1.154-13.467 1.154s-.641 2.309-1.539 5.515c2.693-.77 5.515-1.154 8.337-1.026 0 0-4.233 30.781-3.463 46.172.77 15.391 8.593 30.397 15.006 35.912 5.643 4.874 14.621 5.772 21.29 3.591 4.105-3.463 9.748-9.619 12.826-19.751 5.13-17.443 1.154-27.319-7.567-37.195z"/><path d="M395.415 941.531c-6.413-5.515-14.108-20.521-15.006-35.912-.898-15.39 3.463-46.172 3.463-46.172-2.95-.257-5.644.128-8.337 1.026-1.41 5.13-3.206 12.57-3.078 16.673 0 4.233-6.413 36.682 8.208 55.279 8.85 11.286 18.213 14.878 24.37 15.904 4.103.77 8.336-.385 11.542-2.95.128 0 .128-.128.257-.128-6.798 2.052-15.776 1.154-21.42-3.72z" fill="#000" opacity=".1"/><path d="M357.964 345.651s-12.056-41.683-13.21-55.663c-1.155-13.98 7.823-26.293 20.392-27.062 12.57-.77 9.107 1.795 9.107 1.795l-13.596 10.774-2.693 70.156z" fill="#CEA78D"/><path d="M282.806 807.76c4.104.77 8.336-1.027 9.362-3.976l66.822-190.846c1.026-2.95-1.54-5.772-5.643-6.541-4.105-.77-8.337 1.026-9.363 3.976l-66.95 190.845c-1.026 2.822 1.54 5.772 5.772 6.542zM483.014 795.575c-4.104.77-8.337-1.026-9.363-3.976L406.83 600.754c-1.026-2.95 1.539-5.772 5.643-6.542 4.104-.77 8.337 1.026 9.363 3.976l66.821 190.846c1.155 2.822-1.41 5.772-5.643 6.541z" fill="#878686"/><path d="M261.9 847.904c4.104.77 8.336-1.026 9.363-3.976l66.821-190.846c1.026-2.95-1.539-5.771-5.643-6.54-4.104-.77-8.337 1.025-9.363 3.975l-66.821 190.846c-1.027 2.95 1.539 5.771 5.643 6.54zM508.28 835.72c-4.104.769-8.336-1.027-9.362-3.977l-66.822-190.845c-1.026-2.95 1.54-5.772 5.643-6.541 4.105-.77 8.337 1.026 9.363 3.976l66.822 190.845c1.026 2.95-1.54 5.772-5.643 6.541z" fill="#999"/><path d="M370.661 689.379c-43.992 0-82.34-27.447-97.475-67.078-11.414-29.884-20.264-47.327-35.527-75.543l-6.156-14.237c-.257-.513-.513-1.154-.641-1.796-7.054-62.204 65.154-145.314 127.615-145.314h27.319c63.743 0 138.773 83.367 129.667 146.597-.128.641-.385 1.283-.641 1.924l-1.411 7.695c-18.213 29.756-33.219 52.97-47.07 85.034-16.16 37.323-53.355 62.718-95.68 62.718z" fill="#CCC"/><path d="M451.976 539.575s27.319 53.868 11.543 74.774-27.832 46.557-72.208 47.84c-44.505 1.282-96.321-15.263-98.886-25.524-2.565-10.26-9.748-52.713 8.208-77.467 17.956-24.753 145.315-24.753 151.343-19.623z" fill="#000" opacity=".1"/><path d="M441.33 558.557s65.925 58.357 78.75 67.591c22.702 16.289 31.68 29.628 19.752 51.816-11.8 22.188-36.169 98.244-36.169 110.044 0 11.8-4.745 24.882 1.155 36.681 5.9 11.8.897 24.754.897 24.754l-57.972 2.565s8.85-121.587 18.598-159.038c2.18-8.337-.513-7.182-1.411-12.954-.513-2.95-3.463-7.952-4.49-10.645-7.566-20.393-35.398-36.682-52.456-45.916-8.465-4.617-8.465-8.593-13.339-8.209-16.288 1.54-2.18 12.441-3.72 33.219-1.538 20.65 23.6 48.737 14.75 70.926-8.85 22.188-1.539 17.7-1.539 38.348 0 20.65-4.489 42.838 1.54 51.688 5.9 8.85 4.488 1.539 7.438 22.188 2.95 20.65 7.696 35.143 7.696 35.143l-30.14-4.361c-5.26.128-27.448 13.98-26.678 8.721.641-3.976 4.874-17.314 4.745-20.777-1.282-27.832-8.464-84.137-15.775-104.53-4.617-13.082-11.671-20.007-13.852-44.12-2.18-23.984-13.467-23.342-23.342-42.58-4.746-9.235-16.546-28.345-17.956-38.606-1.54-10.389 8.721-56.818 8.721-56.818l134.798-5.13z" fill="#7A7580"/><path d="M574.46 688.866h311.92c.642 0 1.155-.513 1.155-1.283 0-.77-.513-1.282-1.154-1.282H574.46c-.641 0-1.154.513-1.154 1.282 0 .77.513 1.283 1.154 1.283z" fill="#ED3868"/><path d="M451.463 380.665s0-10.901-45.403-9.234c-45.403 1.795-82.597-1.283-97.86 7.824-15.262 9.234-20.52 66.436-25.394 98.757-4.746 32.32 2.565 51.944 3.976 55.022 1.282 3.078 6.156 11.8 6.156 11.8s70.284 5.258 83.367 2.18c13.082-3.078 34.885-6.541 34.885-6.541s-.897-16.545 1.283-18.726c2.18-2.18 21.419-1.282 21.419-1.282l4.36-33.219 14.878 27.96 6.926 19.239 63.744 1.795s-6.541-7.823-1.796-11.8c4.745-3.975-.385-9.618-.385-9.618s-16.545-6.285-26.677-7.567c-10.004-1.283-13.98-16.417-13.98-16.417s-5.643-33.604-8.722-51.046c-2.95-17.7-20.777-59.127-20.777-59.127z" fill="#413454"/><path d="M431.84 276.393s1.154 10.645.256 18.212c-.898 7.567-2.821 18.47-2.821 18.47s-2.437-.77-3.335-1.796c-.898-1.026-2.18-9.235-2.18-9.235l1.539-15.006 6.54-10.645z" fill="#CEA78D"/><path d="M311.279 378.87s8.721 4.745 17.058 29.755c8.336 24.882 7.439 40.145 3.976 52.842-3.463 12.697-8.722 36.297-8.337 42.838.385 6.54 2.18 7.823 2.18 7.823s15.776 2.18 27.062 1.283c11.415-.898 13.596-7.44 17.956-2.18 4.361 5.258 9.235 4.745 11.8 4.745 2.565 0 4.36-3.078 10.004-1.796 5.643 1.283 17.956 2.565 17.956 2.565s-.385 1.283-1.796 7.824c-1.282 6.541-3.463 13.082-1.282 15.776 2.18 2.565 3.976 3.078 0 3.078s-23.6 3.463-29.243 5.258c-5.643 1.796-42.837.898-49.763.385-6.926-.513-31.936-1.282-35.784-4.36-3.976-3.079-10.902-22.317-12.697-31.039-1.796-8.721.385-40.144.385-40.144s9.234-23.6 6.156-29.755c-3.078-6.157-2.565-10.902 0-13.596 2.565-2.565 6.926-27.96 9.62-36.681 2.436-8.465 7.31-17.7 14.749-14.621z" fill="#473B5B"/><path d="M356.553 319.872s0 1.154.128 3.206c.257 8.209 1.155 28.601 1.283 35.014.256 7.824-5.002 11.287-6.156 13.082-1.155 1.796-6.67 1.155-6.67 1.155s17.443 26.805 26.806 31.423c9.363 4.617 11.415 10.132 21.547 7.567 10.132-2.565 17.956-11.8 18.469-21.932.641-10.132 1.154-16.93-.128-18.34-.513-.642-7.567-9.877-7.567-9.877s14.62 6.798 18.597-2.821c4.104-9.62 8.465-25.01 6.413-34.63-2.053-9.619.64-34.116-3.463-41.298-4.105-7.183-25.908-16.289-40.786-10.517-1.667.641-12.697-2.18-14.108-1.283-11.928 6.67-8.978 21.932-9.235 26.293-.256 5.002-5.515-2.565-9.362 3.463-3.72 6.156-3.335 11.03 4.232 19.495zM502.124 516.874s-9.619-5.644-16.801-5.9c-7.183-.257-21.42 5.9-26.421 6.285-5.002.384-10.517-2.18-18.597.64-8.08 2.822-34.245.386-34.245.386s-2.437 20.52-1.154 22.06l1.282 1.539s12.698-1.924 19.624-3.463c6.925-1.54 15.519-1.54 18.982-2.18 3.463-.642 4.745-5.259 9.234-3.079 4.36 2.18 8.721.898 13.724 2.437 5.002 1.54 5.002 0 8.72 0 3.72 0 10.903-.641 11.544-.641s1.924-3.72 0-6.798-4.36-7.439-4.617-8.721c-.257-1.283 3.463-.385 7.695 1.282 4.104 1.796 8.337 2.566 10.004 1.796 1.924-.77 2.052-3.848 1.026-5.643zM522.517 516.489s7.439 1.54 12.954 1.667c5.515.129 16.545-3.847 20.521-2.437 3.976 1.411 13.339 5.259 18.469 10.39 5.13 5.13 11.8 6.925 9.876 9.234-1.924 2.308-7.696 2.052-9.876 1.924-2.18-.129-20.136-.257-27.832-.385-7.695-.128-12.825.385-13.851-.385-1.026-.77.384-1.796-1.924-3.335-2.309-1.539-4.49 3.207-8.593 2.565-1.027-.128-2.053-.77-2.95-1.795-3.976-3.976-4.49-10.389-1.026-14.75 1.154-1.667 2.565-2.693 4.232-2.693z" fill="#848A96"/><path d="M429.788 286.14l5.002-10.773c4.489-7.44.513-17.187-7.952-19.239 0 0-4.746 1.796-13.98 3.463-9.235 1.796-32.962-2.565-46.3 3.72-13.34 6.284-9.235 36.296-7.825 38.861 1.283 2.565 4.105 12.441 4.105 12.441s4.36-1.282 5.258-3.72c.898-2.436-.256-18.083 3.335-22.06 3.463-3.975 4.104-8.336 4.104-8.336l-4.36-8.08s6.797 8.721 9.619 9.234c2.821.513 39.118 12.185 48.994 4.49z" fill="#CEA78D"/><path d="M353.475 384.257c5.771 7.823 13.339 17.058 18.469 19.623 9.363 4.617 11.415 10.132 21.547 7.567 10.132-2.565 24.497-16.545 25.01-26.806.641-10.132-5.387-12.056-6.67-13.595-.384-.513-4.873-6.284-6.797-8.721-2.437 1.026-11.287 4.873-18.34 10.388-7.568 5.9-20.265 12.185-33.22 11.544zM429.275 323.72c-2.053-9.62.64-34.117-3.463-41.3-4.105-7.182-25.908-16.288-40.786-10.516-1.667.641-12.697-2.18-14.108-1.283-11.928 6.67-8.978 21.932-9.235 26.293-.256 5.002-5.515-2.565-9.362 3.463-3.72 6.028-3.463 10.902 3.59 18.982 3.849 1.154 8.85 3.59 10.39 8.721 2.565 8.722 2.308 10.132 9.362 18.597 6.028 7.311 24.24 13.467 28.858 15.006-.256-.256-.385-.513-.385-.513s14.622 6.798 18.597-2.821c4.233-9.62 8.594-25.01 6.542-34.63z"/><path d="M375.792 346.677c-6.926-8.465-6.67-9.875-9.363-18.597-1.54-5.13-6.541-7.567-10.389-8.721.128.128.257.384.513.513 0 0 0 1.154.128 3.206.257 8.209 1.155 28.601 1.283 35.014.256 7.824-5.002 11.287-6.156 13.082-1.155 1.796-6.67 1.155-6.67 1.155s3.591 5.515 8.337 11.928c12.826.64 25.651-5.516 33.347-11.544 7.054-5.515 15.903-9.362 18.34-10.388-.128-.257-.384-.385-.513-.642-4.617-1.539-22.83-7.695-28.857-15.006z" fill="#000" opacity=".05"/><path d="M369.507 271.39s5.643 3.977 15.006 7.44c9.363 3.463 22.958 2.565 33.218 3.334 10.261.642 16.417-7.439 17.7-17.314 0-.385.128-.77.128-1.155-1.539-3.59-4.617-6.54-8.85-7.567 0 0-4.745 1.796-13.98 3.463-9.234 1.668-32.961-2.565-46.3 3.72-13.339 6.284-9.235 36.296-7.824 38.861 1.283 2.565 4.104 12.441 4.104 12.441s4.361-1.282 5.259-3.72c.898-2.436-.257-18.083 3.335-22.06 3.463-3.975 4.104-8.336 4.104-8.336l-3.078-5.643-2.822-3.463z"/><path d="M435.56 264.85c-1.283 9.875-7.44 17.956-17.7 17.314-10.26-.641-23.856.257-33.219-3.334-9.362-3.463-15.006-7.44-15.006-7.44l2.822 3.464-1.283-2.437s6.798 8.721 9.62 9.234c2.821.385 39.246 12.185 49.122 4.49l5.002-10.774c2.308-3.72 2.437-8.08.898-11.8-.257.513-.257.898-.257 1.283z" fill="#170200" opacity=".05"/><path d="M411.19 370.02s2.18 18.469-2.436 25.908c-4.618 7.439-8.337 11.543-12.826 13.082-4.49 1.54-5.13 2.822-5.13 2.822s3.976 1.924 4.617 4.745c.641 2.822 4.36 2.822 5.258 2.18.898-.64 13.339-8.464 16.802-17.955 3.463-9.363 1.539-26.806 1.539-28.858 0-1.54-1.283-2.693-2.693-2.693-1.668.128-3.72.256-5.13.769zM389.643 411.96s-1.026 1.41-1.41 3.72c-.385 2.308.128 6.027-1.027 7.31-1.154 1.283-8.336-1.54-13.21-4.746-5.002-3.206-19.11-15.903-22.445-21.675-3.335-5.771-9.747-15.134-11.158-17.956-1.411-2.821-4.874-5.515-4.874-5.515s1.667-1.924 3.72-1.924c1.667 0 3.847 0 5.258.129.385 0 .77.256 1.026.384l7.567 5.644c-.128.128 24.497 33.346 36.553 34.629z" fill="#473B5B"/><path d="M585.62 542.397H461.594c-1.795 0-3.334-1.54-3.334-3.335s1.539-3.335 3.334-3.335H585.62c1.796 0 3.335 1.54 3.335 3.335 0 1.796-1.41 3.335-3.335 3.335z" fill="#FFF"/><path d="M479.166 576.898s-58.356 1.282-80.16 12.184c-21.804 10.902-66.437-4.874-86.958-17.058-30.397-18.212 115.816-15.006 167.118 4.874z" fill="#000" opacity=".1"/><path d="M539.832 677.836c11.8-22.189 2.95-35.527-19.752-51.816-12.697-9.106-78.75-67.591-78.75-67.591l-134.669 5.13s-.128.641-.384 1.54c4.873 2.564 9.106 6.925 9.106 6.925s-2.565 15.006 2.565 38.862c5.13 23.855 32.064 73.106 33.347 86.316 1.282 13.21.384 38.477 8.978 48.738 8.593 10.26 17.57 34.63 17.57 45.274 0 10.646 0 58.614-3.847 68.361-1.924 4.874-4.489 9.106-6.541 12.185 6.284-1.796 19.495-9.491 23.343-9.491l30.14 4.36s-4.746-14.364-7.696-35.142c-2.95-20.778-1.539-13.339-7.438-22.188-5.9-8.85-1.54-31.038-1.54-51.688 0-20.65-7.438-16.288 1.54-38.348 8.85-22.189-16.289-50.277-14.75-70.926 1.026-14.493-5.515-24.24-3.976-29.243l-.256-.77s9.875-13.466 35.527 1.924c25.651 15.391 52.97 40.658 58.613 47.455 5.515 6.798 19.238 10.646 8.08 17.059-11.158 6.412-10.645 11.927-8.593 15.39 2.18 3.463-3.848 1.283-6.413 11.928-2.565 10.645-16.289 48.353-11.928 68.36 4.233 20.137 14.108 27.833 5.13 33.732-8.977 6.028-15.775 8.978-11.158 15.391 3.848 5.13 4.746 14.237 2.309 21.547l47.326-2.18s5.002-12.954-.897-24.754c-5.9-11.8-1.155-24.881-1.155-36.681.129-11.415 24.37-87.471 36.169-109.66z"/><path d="M456.08 829.948c-4.745-6.413 2.18-9.363 11.158-15.39 8.978-6.029-.897-13.724-5.13-33.732-4.232-20.137 9.363-57.716 11.928-68.361 2.565-10.645 8.593-8.593 6.413-11.928-2.18-3.463-2.565-8.978 8.593-15.39 11.158-6.414-2.565-10.261-8.08-17.059-5.515-6.797-32.962-32.064-58.613-47.455-25.652-15.39-35.527-1.924-35.527-1.924l.256.77c.641-2.18 2.822-3.463 7.696-3.848 4.873-.385 4.873 3.591 13.338 8.209 16.93 9.234 44.89 25.394 52.457 45.916 1.026 2.821 3.976 7.695 4.49 10.645.897 5.643 3.59 4.617 1.41 12.954-9.876 37.322-18.597 159.038-18.597 159.038l10.645-.513c2.437-7.696 1.41-16.802-2.437-21.932zM377.844 791.47c0-10.644-8.978-35.013-17.571-45.274-8.594-10.26-7.696-35.527-8.978-48.737-1.283-13.21-28.217-62.461-33.347-86.317-5.13-23.855-2.565-38.861-2.565-38.861s-4.233-4.361-9.106-6.926c-1.796 8.208-9.62 46.044-8.337 55.278 1.539 10.389 13.21 29.371 17.956 38.605 9.876 19.239 21.162 18.726 23.342 42.582 2.18 24.24 9.235 31.038 13.852 44.12 7.31 20.393 14.493 76.697 15.776 104.529.128 3.335-4.104 16.673-4.746 20.777-.256 1.283 1.155 1.411 3.335.77 2.052-3.078 4.617-7.31 6.541-12.184 3.848-9.748 3.848-57.716 3.848-68.361z" fill="#000" opacity=".1"/><path fill="#F36" d="M986.42 575.23H0v-32.705h986.42z"/><path d="M317.05 546.116c4.49 0 16.673-1.026 40.53-9.49 9.49-3.335 15.903-9.877 18.981-19.367 6.413-20.008-3.848-48.225-16.93-67.079-18.084-26.164-13.467-35.398.385-62.46 1.924-3.848 4.232-8.209 6.541-12.954 18.47-37.708-6.028-50.79-6.284-50.918-.257-.129-.642 0-.898.256-.129.257 0 .641.256.898 1.026.513 23.6 12.57 5.644 49.122-2.31 4.746-4.49 9.106-6.542 12.954-13.723 26.934-18.853 36.938-.256 63.744 12.954 18.725 23.086 46.3 16.802 66.052-2.95 9.106-8.978 15.262-18.085 18.597-30.653 10.902-41.94 9.363-42.068 9.363-.385 0-.641.128-.77.513 0 .384.129.641.514.77.128-.129.77 0 2.18 0z" fill="#F36"/><path d="M356.81 302.3s1.923-1.795 3.334 2.437c1.411 4.233 1.026 6.798-.898 7.44-1.923.769-1.923 5.13-1.026 6.669.898 1.539 2.694 4.489 2.437 5.13-.256.641-1.154 1.026-1.154 1.026s-2.052-.128-3.976-4.745c-1.924-4.618-7.824-16.29 1.283-17.956zM366.172 463.39h.257c.385-.127.513-.512.385-.769 0 0-1.796-4.745-8.08-23.855-5.387-16.289 13.851-28.73 34.244-42.069l10.004-6.54c8.85-6.029 13.21-11.8 13.21-17.572 0-5.9-5.002-9.234-5.258-9.363-.257-.256-.641-.128-.898.129-.256.256-.128.641.128.897 0 0 4.618 3.079 4.746 8.337 0 5.13-4.233 10.774-12.57 16.417-3.206 2.18-6.669 4.489-10.003 6.541-20.778 13.595-40.401 26.293-34.758 43.479 6.156 19.239 8.337 24.369 8.593 24.369z" fill="#F36"/><path d="M292.553 544.577h43.48c2.051 0 3.59-1.667 3.59-3.591 0-2.052-1.667-3.591-3.59-3.591h-43.48c-2.052 0-3.591 1.667-3.591 3.591 0 2.052 1.539 3.591 3.591 3.591z" fill="#FFF"/><path d="M356.297 301.788s1.154 1.41 1.795 4.745 1.411 4.233-.77 5.643c-2.18 1.411-1.667 3.72-1.025 5.644a803.08 803.08 0 0 0 1.923 5.643s.129 1.026-.64.77c-.77-.257-1.796-1.155-1.796-1.155s3.59 3.078 3.719 3.078c.128 0 .77 1.026 2.052-1.154 1.283-2.18 1.796-3.976 1.796-3.976s2.308-22.445-7.054-19.238z" fill="#000" opacity=".1"/><path d="M839.31 534.188h-38.476c-18.982 0-36.938 3.72-49.636 10.39h137.876c-12.697-6.67-30.781-10.39-49.763-10.39z" fill="#878686"/><path fill="#727272" d="M813.788 466.597l14.364-5.13-42.966-90.42 3.72 43.093z"/><path d="M834.052 430.814h-7.824a14.068 14.068 0 0 0-14.108 14.108v91.318h21.932V430.814zM834.309 218.806c9.362-23.728-21.676 139.543-27.704 173.274-6.028 33.86-29.884 108.505-42.324 116.329-12.441 7.823-7.311-37.58-7.311-37.58s57.202-200.977 77.339-252.023z" fill="#878686"/><path d="M755.944 507.64c-.128 2.051 5.002 3.334 6.156 1.538 3.976-5.515 5.772-14.108 6.798-16.673 10.645-27.19 65.41-273.7 65.41-273.7-.128-1.282-46.685 44.377-49.891 51.816l-43.992 177.507c-.641 3.078 16.417 49.892 15.519 59.511z" fill="#999"/><path d="M784.032 462.108L449.667 477.5c-4.104.128-11.8-6.156-11.8-10.389V266.26c0-3.975 3.079-7.182 7.055-7.31l338.597-12.313c4.104-.128 7.567 3.207 7.567 7.31v200.85c0 3.977-3.078 7.183-7.054 7.311z" fill="#5E5E5E"/><path d="M789.675 464.93l-338.597 12.44c-4.104.129-7.567-3.206-7.567-7.438V266.26c0-3.976 3.078-7.183 7.054-7.44l338.597-12.44c4.105-.128 7.567 3.206 7.567 7.439v203.8c-.128 3.847-3.206 7.182-7.054 7.31z" fill="#727272"/><path fill="#5E5E5E" d="M588.184 542.91h59.64l-12.185-139.158-40.4 1.923z"/><g><path d="M722.854 358.22c32.064-39.76 32.32-88.368 30.397-110.428L450.437 258.95c-3.976.128-7.054 3.463-7.054 7.439v164.425c73.362 14.493 236.633-19.495 279.47-72.594z"/><path d="M722.854 358.22c-42.966 53.227-206.237 87.087-279.343 72.465v39.375c0 4.233 3.463 7.567 7.567 7.439l338.597-12.44c3.976-.13 7.054-3.464 7.054-7.44v-203.8c0-4.232-3.462-7.566-7.567-7.438l-35.783 1.282c1.924 22.189 1.539 70.798-30.525 110.557z" fill="#5E5E5E" opacity=".2"/></g><path d="M673.988 530.084H550.862c-3.591 0-6.413 2.822-6.413 6.413s2.822 6.413 6.413 6.413h123.126c3.591 0 6.413-2.822 6.413-6.413s-2.95-6.413-6.413-6.413z" fill="#5E5E5E"/><g><path d="M743.888 547.142h30.397c.513 0 1.026-.384 1.282-.898l9.106-32.577c.257-.77-.384-1.667-1.282-1.667h-48.61c-.897 0-1.41.77-1.282 1.667l9.106 32.577c.257.514.77.898 1.283.898z" fill="#413454"/><path d="M783.39 512.128h-41.426c.77 7.44 3.463 22.317 11.287 25.652 8.08 3.334 19.366.77 24.625 0l6.67-23.984c.384-.898-.257-1.668-1.155-1.668z"/><path d="M753.379 537.651c-7.824-3.206-10.517-18.212-11.287-25.651h-7.182c-.898 0-1.411.77-1.283 1.667l9.106 32.577c.129.514.642.898 1.283.898h30.397c.513 0 1.026-.384 1.282-.898l2.437-8.593c-5.387.77-16.673 3.335-24.753 0z" fill="#000" opacity=".1"/><path d="M784.417 510.204s6.797 5.13-7.183 8.209c-13.98 3.078-33.09 1.667-37.835.513-4.746-1.154-6.798-3.72-7.567-5.387-.77-1.667 10.388-8.721 10.388-8.721s38.35 2.821 42.197 5.386z" fill="#4C4060"/><path d="M781.852 513.667s-2.822 1.924-14.878 2.565c-12.056.642-28.216-.513-29.627-1.282-1.411-.77-2.052-1.54-2.052-1.54s42.068-.256 46.557.257z" fill="#5E5E5E"/><g><path d="M770.18 494.044a.98.98 0 0 0 .257-.641c1.154-3.463 2.565-15.134 8.337-13.98.64.128 1.282.385 1.667.77l.128.128c.128 0 .128.128.128.128l.129.128c0 .128.128.128.128.257l.128.128c0 .128.128.128.128.256v.129c0 .128.129.256.129.384v5.644c0 .128 0 .256-.129.256 0 .129 0 .257-.128.257 0 .128 0 .256-.128.256v.385c0 .128-.128.257-.128.257 0 .128 0 .128-.129.256 0 .128 0 .128-.128.257 0 .128-.128.256-.128.256 0 .128 0 .128-.128.257v.128s0 .128-.129.128c0 .128 0 .128-.128.257 0 .128 0 .128-.128.256 0 .128-.128.257-.128.385 0 0 0 .128-.129.128v.128c0 .129-.128.257-.128.257v.128s0 .128-.128.128c0 .129-.128.257-.128.385 0 0 0 .128-.129.128 0 .129-.128.129-.128.257s-.128.257-.128.257c0 .128-.128.128-.128.256v.128c0 .129-.129.129-.129.257l-.128.128-.128.128c-.128.129-.128.257-.257.385 0 0 0 .128-.128.128 0 0 0 .129-.128.129 0 .128-.129.128-.129.256v.128l-.128.129c0 .128-.128.128-.128.256 0 0 0 .128-.128.128-.129.129-.257.257-.257.385-.128.128-.256.385-.385.513l-.384.385c-.642.77-1.411 1.283-2.18 1.796-.129.128-.257.128-.385.256-.898.385-1.668.77-2.566.898-.128 0-.256 0-.384.128-.77.128-1.54.128-2.18.128h-.385-.514-.513c-.384 0-.77-.128-1.282-.256h-.128c-.129 0-.257 0-.257-.128h-.128c-.128 0-.128 0-.257-.129h-.128c-.128 0-.128 0-.256-.128h-.129c-.128 0-.128 0-.256-.128-.128 0-.128 0-.257-.128-.128 0-.256-.129-.256-.129-.128 0-.128-.128-.257-.128 0 0-.128 0-.128-.128-.128 0-.128 0-.256-.128 0 0-.129 0-.129-.129-.128 0-.128-.128-.256-.128 0 0-.129 0-.129-.128-.128 0-.128-.128-.256-.128 0 0-.128 0-.128-.129-.129 0-.129-.128-.257-.128h-.128c-.128 0-.257-.128-.385-.128l1.154-3.207c.385.257 5.772 2.437 7.44-.128z" fill="#696D72"/><path d="M760.305 468.136s-2.694 2.694-2.566 11.415c.129 8.722 8.722 26.42 1.924 37.451-6.797 11.03-25.651 3.848-25.907 2.822-.257-1.026-5.516-33.86-5.516-33.86s-6.284-32.449 32.065-17.828z" fill="#A7AAAF" opacity=".2"/><path d="M759.022 469.034c10.774 0 10.517 9.491 10.132 16.93-.384 7.439-2.052 21.675-2.437 25.01-.384 3.335-2.308 4.36-7.567 4.36-5.258 0-7.182-1.025-7.567-4.36-.385-3.335-2.052-17.571-2.565-25.01-.641-7.439-.898-16.93 10.004-16.93z" fill="#747982"/><path d="M734.14 477.242c0-.128 0-.256.129-.513v-.128-.256-.257-.256-.257-.256-.257-.256-.257-.256c0-.129 0-.129.128-.257v-.256c0-.129 0-.129.128-.257v-.128c0-.128 0-.128.128-.257v-.128c0-.128.129-.128.129-.256v-.129c0-.128.128-.256.128-.256.385-.898.898-1.668 1.41-2.437l.257-.257.257-.256c1.026-1.026 2.308-1.411 3.847-1.026.385.128.642.256 1.026.385.257.128.642.384.77.513l.256.256.129.128.128.129c0 .128.128.128.128.256 0 0 0 .128.128.128 0 .129.129.129.129.257v.128c.128.128.128.385.256.513.129.128.129.385.129.513.64 2.565.384 6.157.128 9.106 0 .513-.128.898-.128 1.411v1.925c0 .64.128 1.153.256 1.538.385 1.154 1.54 1.796 2.693 2.052.129 0 .257 0 .385.129h.77c.256 0 .513 0 .641.128h2.052c1.924 1.026 2.18 3.206.513 4.36l-.128.129H747.222c-.384 0-.77 0-1.154-.129h-.513c-.385 0-.77-.128-1.154-.128-.385 0-.641-.128-1.026-.128-.257 0-.385-.128-.642-.128l-1.923-.385c-2.052-.513-3.848-2.437-5.13-4.746-.257-.513-.514-1.026-.77-1.667-.257-.513-.385-1.154-.641-1.667-.129-.513-.385-1.155-.513-1.668-.129-.384-.129-.77-.257-1.154.513-1.026.513-2.308.641-3.335z" fill="#A7AAAF"/></g></g><g><path d="M225.731 547.142h30.397c.513 0 1.026-.384 1.283-.898l9.106-32.577c.257-.77-.385-1.667-1.283-1.667h-48.609c-.898 0-1.41.77-1.282 1.667l9.106 32.577c.256.514.77.898 1.282.898z" fill="#413454"/><path d="M265.234 512.128h-41.426c.77 7.44 3.463 22.317 11.286 25.652 8.08 3.334 19.367.77 24.625 0l6.67-23.984c.385-.898-.257-1.668-1.155-1.668z"/><path d="M235.222 537.651c-7.823-3.206-10.517-18.212-11.286-25.651h-7.182c-.898 0-1.411.77-1.283 1.667l9.106 32.577c.128.514.641.898 1.283.898h30.397c.513 0 1.026-.384 1.282-.898l2.437-8.593c-5.387.77-16.673 3.335-24.754 0z" fill="#000" opacity=".1"/><path d="M266.26 510.204s6.798 5.13-7.182 8.209c-13.98 3.078-33.09 1.667-37.836.513-4.745-1.154-6.797-3.72-7.567-5.387-.77-1.667 10.39-8.721 10.39-8.721s38.348 2.821 42.196 5.386z" fill="#4C4060"/><path d="M263.695 513.667s-2.821 1.924-14.877 2.565c-12.056.642-28.217-.513-29.628-1.282-1.41-.77-2.052-1.54-2.052-1.54s42.068-.256 46.557.257z" fill="#5E5E5E"/><g><path d="M252.024 494.044a.98.98 0 0 0 .257-.641c1.154-3.463 2.565-15.134 8.336-13.98.642.128 1.283.385 1.668.77l.128.128c.128 0 .128.128.128.128l.128.128c0 .128.129.128.129.257l.128.128c0 .128.128.128.128.256v.129c0 .128.128.256.128.384v5.644c0 .128 0 .256-.128.256 0 .129 0 .257-.128.257 0 .128 0 .256-.128.256v.129c0 .128 0 .128-.129.256 0 .128-.128.257-.128.257 0 .128 0 .128-.128.256 0 .128 0 .128-.128.257 0 .128-.129.256-.129.256 0 .128 0 .128-.128.257v.128s0 .128-.128.128c0 .128 0 .128-.128.257 0 .128 0 .128-.129.256 0 .128-.128.257-.128.385 0 0 0 .128-.128.128v.128c0 .129-.128.257-.128.257v.128s0 .128-.129.128c0 .129-.128.257-.128.385 0 0 0 .128-.128.128 0 .129-.129.129-.129.257s-.128.257-.128.257c0 .128-.128.128-.128.256v.128c0 .129-.128.129-.128.257l-.129.128-.128.128c-.128.129-.128.257-.256.385 0 0 0 .128-.129.128 0 0 0 .129-.128.129 0 .128-.128.128-.128.256v.128l-.128.129c0 .128-.129.128-.129.256 0 0 0 .128-.128.128-.128.129-.256.257-.256.385-.129.128-.257.385-.385.513l-.385.385c-.641.77-1.41 1.283-2.18 1.796-.129.128-.257.128-.385.256-.898.385-1.667.77-2.565.898-.128 0-.257 0-.385.128-.77.128-1.539.128-2.18.128h-.385-.513-.513c-.385 0-.77-.128-1.283-.256h-.128c-.128 0-.256 0-.256-.128h-.129c-.128 0-.128 0-.256-.129h-.128c-.129 0-.129 0-.257-.128h-.128c-.128 0-.128 0-.257-.128-.128 0-.128 0-.256-.128-.129 0-.257-.129-.257-.129-.128 0-.128-.128-.256-.128 0 0-.129 0-.129-.128-.128 0-.128 0-.256-.128 0 0-.128 0-.128-.129-.129 0-.129-.128-.257-.128 0 0-.128 0-.128-.128-.128 0-.128-.128-.257-.128 0 0-.128 0-.128-.129-.128 0-.128-.128-.256-.128h-.129c-.128 0-.256-.128-.384-.128l1.154-3.207c.513.257 5.9 2.437 7.567-.128z" fill="#696D72"/><path d="M242.148 468.136s-2.693 2.694-2.565 11.415c.128 8.722 8.722 26.42 1.924 37.451-6.67 11.158-25.651 3.848-25.908 2.822-.256-1.026-5.515-33.86-5.515-33.86s-6.284-32.449 32.064-17.828z" fill="#A7AAAF" opacity=".2"/><path d="M241.122 464.673c10.517-2.565 10.26 13.852 9.876 21.29-.385 7.44-2.052 21.676-2.437 25.01-.385 3.336-2.308 4.362-7.567 4.362s-7.182-1.026-7.567-4.361c-.385-3.335-2.052-17.571-2.565-25.01-.642-7.439 2.437-19.367 10.26-21.29z" fill="#747982"/><path d="M218.806 492.12a15.936 15.936 0 0 1 .77-6.028c.256-.641.384-1.282.384-1.282 0-.129.128-.257.128-.257 0-.128.128-.256.257-.256.897-1.155 2.052-1.796 3.59-1.796.386 0 .642.128 1.027.128.385.129.641.257.898.385.128.128.256.128.256.257l.128.128.129.128.128.128.128.129c0 .128.129.128.129.256v.128c.128.129.256.257.256.513.128.129.257.513.257.513 1.154 2.437 1.41 6.028 1.795 8.978 0 .513.128.898.128 1.411 0 .385.129.77.129 1.154 0 .257.128.514.128.77.128.641.256 1.154.513 1.54.641 1.025 1.796 1.41 2.95 1.538h2.565c.256 0 .385-.128.513-.128h.385c.128 0 .256 0 .385-.128h.128c2.052.64 2.693 2.693 1.282 4.232l-.128.128s-.385.129-.898.129c-.641.128-1.41.256-2.437.384h-.384c-.385 0-.77.129-1.155.129h-.513c-.384 0-.77.128-1.154.128H227.784c-2.18-.128-4.233-1.667-5.9-3.72-.385-.513-.77-.897-1.026-1.41-.385-.513-.642-1.026-.898-1.54a20.877 20.877 0 0 1-.77-1.667c-.128-.385-.256-.77-.384-1.026.384-.898.128-2.437 0-3.976z" fill="#A7AAAF"/></g></g><path d="M824.561 16.802c-15.39 0-29.627 4.617-41.555 12.569C776.85 12.313 760.433.128 741.194.128c-24.497 0-44.505 19.88-44.505 44.505 0 1.026 0 1.924.129 2.95-31.038 2.052-55.664 27.96-55.664 59.64 0 32.961 26.806 59.767 59.768 59.767h123.64c41.426 0 75.03-33.603 75.03-75.03s-33.476-75.158-75.03-75.158z" fill="#ED3868"/><path d="M877.916 400.93H815.71c-.384 0-.64-.257-.64-.641 0-.385.256-.642.64-.642h60.922v-289.86c0-.384.257-.64.642-.64.384 0 .64.256.64.64V400.93z" fill="#ED3868"/><path d="M950.124 359.246H876.89c-.128 0-.257-.256-.257-.64 0-.386.129-.642.257-.642h73.234c.129 0 .257.256.257.641s-.128.641-.257.641z" fill="#ED3868"/><path d="M1713.379 255.102s-13.595 24.24-6.028 49.892c7.567 25.651 13.595 31.808 21.162 28.73l7.567-3.079-7.567 21.163 51.43-1.54 10.646-1.539s-9.106 0-10.645-4.489c-1.54-4.488-6.028-37.835-6.028-37.835s-12.056-74.004-60.537-51.303zM1858.693 401.828s13.852 14.108 17.059 25.651c3.206 11.543 3.59 16.673 3.59 16.673s-26.292 17.571-27.96 19.495c-1.667 1.924-18.596-15.134-18.596-15.134l-1.924-23.727s1.026-11.544 1.924-11.928c.897-.385 25.907-11.03 25.907-11.03z" fill="#848A96"/><path d="M1815.47 344.754s29.243 24.368 42.967 40.4c13.723 16.032 14.108 21.804 14.108 21.804s-24.753 12.826-33.09 14.493c-8.337 1.667-23.984-76.697-23.984-76.697z" fill="#2F343F"/><path d="M1689.78 727.343s4.873 13.467-1.283 20.905c-6.156 7.44-32.064 34.373-26.036 40.401 6.028 6.028 39.503-5.515 51.303-12.825 11.8-7.311 29.242-25.652 25.394-33.09-3.847-7.44-17.314-13.852-21.547-16.674-4.232-2.822-7.695-8.721-10.004-8.337-2.308.385-17.827 9.62-17.827 9.62z" fill="#848A96"/><path d="M1822.91 639.872h-118.894c-10.645 0-19.238-8.593-19.238-19.239 0-10.645 8.593-19.238 19.238-19.238h118.894c10.645 0 19.238 8.593 19.238 19.238 0 10.646-8.593 19.239-19.238 19.239z" fill="#ED3868"/><path d="M1691.319 416.064s-44.249 18.597-48.353 19.239c-4.104.64-27.832-14.237-47.198-43.351-8.85-13.21-11.159-23.984-14.109-29.5-2.821-5.13-6.54-9.618-11.8-12.312-2.82-1.41-7.31-3.976-10.003-5.515-9.62-5.13-4.233-15.134 1.41-20.52 3.72-3.464 10.39-6.798 13.596-7.568 1.667-.385 7.31 3.078 7.823 4.617 1.026 2.95 4.618 6.157 5.772 10.774 1.924 7.182-2.437 11.928 1.282 16.545 3.72 4.617 37.323 44.12 45.532 46.557 8.208 2.565 21.547-7.567 21.547-7.567l34.5 28.601z" fill="#848A96"/><path d="M1753.908 524.697s-112.225 50.02-123.768 55.792c-11.543 5.772-26.292 19.88-26.934 24.369-.64 4.489 26.934 42.324 34.63 55.791 7.695 13.467 37.194 47.455 35.27 58.357-1.924 10.902-4.489 12.826 1.924 17.315 6.413 4.489 3.848 3.206 11.543 1.923 7.696-1.282 32.706-16.032 37.195-13.466 4.489 2.565 3.847.64 3.847.64s-17.956-24.368-21.803-35.911c-3.848-11.543-25.01-53.226-25.01-53.226s54.893-27.32 82.469-31.167c27.575-3.847 59.639-2.565 66.693-2.565 7.054 0 28.858-33.603 28.216-43.864-.64-10.26-87.599-41.683-104.272-33.988z" fill="#ACADAF"/><path d="M1651.816 385.154s11.543-7.952 12.312-8.465c5.772-4.232 21.42-19.495 33.603-23.727 13.724-4.746 52.97-6.413 60.666-7.31 7.695-.898 48.737-5.516 58.1-2.181 9.363 3.463 20.521 24.753 26.036 57.33 5.515 32.45 21.419 111.969 20.521 128.642-.898 16.673-6.797 32.449-6.797 32.449s-40.145-16.289-60.281-22.702c-20.136-6.412-47.455-10.645-47.455-10.645s-1.667-16.673 2.565-21.804c4.233-5.13 3.848-6.028 0-11.158s-13.21-15.006-11.543-22.701c1.667-7.696-18.854-44.89-26.549-52.585-7.695-7.696-47.07 11.158-47.07 11.158s4.232 2.18-1.667-10.26c-6.029-12.441-22.702-26.037-21.932-28.602.77-2.565 5.643-5.13 9.49-7.439z" fill="#3A4151"/><g><path d="M1667.463 431.07c-.898.385-1.41.641-1.41.641s1.153.513 1.41-.64zM1842.661 400.93c-5.515-32.449-16.673-53.868-26.036-57.33-9.362-3.464-50.405 1.282-58.1 2.18-7.695.897-47.07 2.565-60.665 7.31-12.185 4.233-27.832 19.495-33.603 23.728-.77.513-12.313 8.465-12.313 8.465-3.848 2.308-8.593 5.002-9.363 7.567-.77 2.565 15.904 16.288 21.932 28.6 2.822 5.9 3.335 8.466 3.206 9.62 3.335-1.539 12.057-5.387 21.035-8.465 11.543-6.54 28.985-14.75 39.503-10.389 16.673 6.798 13.21 37.58 32.064 53.868 18.853 16.289 33.346 33.732 33.346 33.732s-27.318-2.18-32.962 11.927c-2.821 7.055-1.539 13.98.257 19.11 9.747 1.925 23.6 4.874 35.142 8.466 20.136 6.412 60.28 22.701 60.28 22.701s6.029-15.776 6.798-32.449c.77-16.673-15.006-96.192-20.52-128.641z"/><path d="M1760.577 511.872c5.515-14.108 32.962-11.928 32.962-11.928s-14.493-17.571-33.347-33.732c-18.853-16.16-15.39-47.07-32.064-53.867-10.517-4.361-28.088 3.847-39.503 10.388 10.26-3.462 20.906-5.643 24.497-2.052 7.696 7.696 28.217 44.89 26.55 52.586-1.668 7.695 7.695 17.57 11.542 22.7 3.848 5.131 4.233 6.029 0 11.16-4.232 5.13-2.565 21.803-2.565 21.803s5.002.77 12.313 2.18c-2.052-5.258-3.206-12.184-.385-19.238z" fill="#5E5E5E" opacity=".2"/></g><path d="M1713.379 255.102l-14.365-18.34s65.154-16.674 73.748-12.185c8.593 4.49 9.619 24.754 9.619 24.754s11.928 7.439 9.619 21.803c-2.309 14.365-13.21 52.97-13.21 52.97s-13.467-.385-14.493-1.924c-1.026-1.539-12.57-35.655-15.776-44.376-3.206-8.722-15.904-16.93-15.904-16.93l-19.238-5.772z" fill="#3A4151"/><path d="M1733.002 279.343c0 1.667 1.796 2.437 3.206 1.539.129 0 .129-.128.129-.128 3.334-.898 9.362-2.18 9.106.897-.385 4.233-2.565 14.493-5.387 17.187l-2.822 2.821s8.594 4.105 12.185 9.363c3.591 5.387 14.878 10.902 14.878 10.902l7.182-18.213-17.315-29.883-20.905-17.058-.257 22.573z" fill="#3A4151"/><path d="M1736.593 292.04s-1.539 25.523-1.282 30.653c.256 5.13.256 5.387-1.924 10.26-2.18 4.875-16.289 7.312-16.289 7.312s-3.591-15.006-2.18-14.878c1.539.128 5.515 5.515 8.08 1.41 1.924-3.078 6.926-25.138 10.004-33.73 1.154-2.694 3.591-1.027 3.591-1.027z" fill="#3A4151"/><g><path d="M1705.812 689.507c-3.848-11.543-24.754-52.842-25.01-53.226-2.95-1.54-5.13-4.361-2.309-8.978 5.515-9.363 31.166-33.732 76.57-33.347 42.452.385 56.047 10.902 80.544 5.258 9.106-8.721 23.343-32.192 22.702-40.529-.642-10.26-87.6-41.683-104.273-33.988 0 0-112.224 50.02-123.767 55.792-11.544 5.772-26.293 19.88-26.934 24.369-.642 4.489 26.934 42.324 34.629 55.791 7.695 13.467 37.194 47.455 35.27 58.357-1.923 10.902-4.489 12.826 1.924 17.315 6.413 4.489 3.848 3.206 11.543 1.923 7.696-1.282 32.706-16.032 37.195-13.466 4.489 2.565 3.847.64 3.847.64s-18.084-24.368-21.931-35.911z"/><path d="M1754.934 593.956c-45.275-.385-70.926 23.984-76.57 33.347-2.693 4.617-.512 7.438 2.31 8.978 0 0 54.893-27.32 82.468-31.167 27.575-3.847 59.64-2.565 66.694-2.565 1.41 0 3.206-1.282 5.515-3.335-24.369 5.644-37.836-4.873-80.417-5.258z" fill="#5E5E5E" opacity=".2"/></g></g></svg>